<svg width="18" height="15" viewBox="0 0 18 15" fill="none" xmlns="http://www.w3.org/2000/svg">
<path d="M1 2.01953L1.29289 1.72664C1.74565 1.27388 2.35971 1.01953 3 1.01953C3.64029 1.01953 4.25435 1.27389 4.70711 1.72664L5.29289 2.31243C5.74565 2.76518 6.35971 3.01953 7 3.01953C7.64029 3.01953 8.25435 2.76518 8.70711 2.31242L9.29289 1.72664C9.74565 1.27388 10.3597 1.01953 11 1.01953C11.6403 1.01953 12.2544 1.27389 12.7071 1.72664L13.2929 2.31243C13.7456 2.76518 14.3597 3.01953 15 3.01953C15.6403 3.01953 16.2544 2.76518 16.7071 2.31242L17 2.01953M1 7.01953L1.29289 6.72664C1.74565 6.27388 2.35971 6.01953 3 6.01953C3.64029 6.01953 4.25435 6.27389 4.70711 6.72664L5.29289 7.31243C5.74565 7.76518 6.35971 8.01953 7 8.01953C7.64029 8.01953 8.25435 7.76518 8.70711 7.31242L9.29289 6.72664C9.74565 6.27388 10.3597 6.01953 11 6.01953C11.6403 6.01953 12.2544 6.27389 12.7071 6.72664L13.2929 7.31243C13.7456 7.76518 14.3597 8.01953 15 8.01953C15.6403 8.01953 16.2544 7.76518 16.7071 7.31242L17 7.01953M1 12.0195L1.29289 11.7266C1.74565 11.2739 2.35971 11.0195 3 11.0195C3.64029 11.0195 4.25435 11.2739 4.70711 11.7266L5.29289 12.3124C5.74565 12.7652 6.35971 13.0195 7 13.0195C7.64029 13.0195 8.25435 12.7652 8.70711 12.3124L9.29289 11.7266C9.74565 11.2739 10.3597 11.0195 11 11.0195C11.6403 11.0195 12.2544 11.2739 12.7071 11.7266L13.2929 12.3124C13.7456 12.7652 14.3597 13.0195 15 13.0195C15.6403 13.0195 16.2544 12.7652 16.7071 12.3124L17 12.0195" stroke="#272D37" stroke-width="2" stroke-linecap="round"/>
</svg>
