<svg width="17" height="20" viewBox="0 0 17 20" fill="none" xmlns="http://www.w3.org/2000/svg">
<path d="M15 12.0191L13 10.0191M13 10.0191L11 8.01907M13 10.0191L11 12.0191M13 10.0191L15 8.01907M16 5.01907V2.4961C16 1.78864 15.2855 1.30488 14.6286 1.56763L7.25722 4.51618C6.4979 4.81991 6 5.55533 6 6.37314V13.665C6 14.4828 6.4979 15.2182 7.25722 15.522L14.6286 18.4705C15.2855 18.7333 16 18.2495 16 17.542V15.0191M3 15.0191H5C5.55228 15.0191 6 14.5714 6 14.0191V6.01907C6 5.46679 5.55228 5.01907 5 5.01907H3C1.89543 5.01907 1 5.9145 1 7.01907V13.0191C1 14.1236 1.89543 15.0191 3 15.0191Z" stroke="#272D37" stroke-width="2" stroke-linecap="round"/>
</svg>
