<svg width="20" height="21" viewBox="0 0 20 21" fill="none" xmlns="http://www.w3.org/2000/svg">
<path d="M19 4.49412C18.2511 3.43057 17.3184 2.50574 16.2481 1.76578C15.5346 1.27249 14.5844 1.43525 13.9711 2.04861L13 3.01969M1 4.49412C1.74895 3.43057 2.68165 2.50574 3.75193 1.76578C4.46544 1.27249 5.41555 1.43525 6.02892 2.04861L7 3.01969M7 9.01969V10.0197M13 9.01969V10.0197M9 12.0197H11M8.5 15.0197C9.32843 15.0197 10 14.3481 10 13.5197M10 13.5197C10 14.3481 10.6716 15.0197 11.5 15.0197M10 13.5197V12.0197M18 11.0197C18 15.438 14.4183 19.0197 10 19.0197C5.58172 19.0197 2 15.438 2 11.0197C2 6.60142 5.58172 3.01969 10 3.01969C14.4183 3.01969 18 6.60142 18 11.0197Z" stroke="#272D37" stroke-width="2" stroke-linecap="round"/>
</svg>
