<svg width="18" height="23" viewBox="0 0 18 23" fill="none" xmlns="http://www.w3.org/2000/svg">
<path d="M7 4.01953C7 2.36268 5.65685 1.01953 4 1.01953C2.34315 1.01953 1 2.36268 1 4.01953C1 5.67639 2.34315 7.01953 4 7.01953C5.65685 7.01953 7 5.67639 7 4.01953ZM7 4.01953H13.5C15.433 4.01953 17 5.58653 17 7.51953C17 9.45253 15.433 11.0195 13.5 11.0195H4.5C2.567 11.0195 1 12.5865 1 14.5195C1 16.4525 2.567 18.0195 4.5 18.0195H16M14 21.0195L16.8427 18.3731C17.0524 18.1778 17.0524 17.8612 16.8427 17.666L14 15.0195" stroke="#272D37" stroke-width="2" stroke-linecap="round"/>
</svg>
