<svg width="51" height="16" viewBox="0 0 51 16" fill="none" xmlns="http://www.w3.org/2000/svg">
<path d="M1.69405 15.9384C1.22694 15.9384 0.826552 15.7741 0.492898 15.4456C0.159244 15.1171 -0.00501642 14.7167 0.00011666 14.2445C-0.00501642 13.7825 0.159244 13.3872 0.492898 13.0587C0.826552 12.7302 1.22694 12.5659 1.69405 12.5659C2.14577 12.5659 2.53846 12.7302 2.87211 13.0587C3.2109 13.3872 3.38286 13.7825 3.38799 14.2445C3.38286 14.5576 3.30073 14.8425 3.1416 15.0991C2.9876 15.3558 2.78228 15.5611 2.52562 15.7151C2.2741 15.864 1.99691 15.9384 1.69405 15.9384Z" fill="white"/>
<path d="M12.051 3.94225V6.09817H5.25213V3.94225H12.051ZM6.93067 1.10876H9.71796V12.2117C9.71796 12.5865 9.77443 12.8739 9.88736 13.0741C10.0054 13.2692 10.1594 13.4026 10.3493 13.4745C10.5393 13.5464 10.7497 13.5823 10.9807 13.5823C11.1552 13.5823 11.3144 13.5695 11.4581 13.5438C11.607 13.5181 11.7199 13.495 11.7969 13.4745L12.2666 15.6535C12.1177 15.7048 11.9047 15.7613 11.6275 15.8229C11.3554 15.8845 11.0218 15.9204 10.6265 15.9307C9.92842 15.9512 9.29961 15.846 8.7401 15.615C8.18059 15.3789 7.73657 15.0144 7.40805 14.5217C7.08466 14.0289 6.92554 13.4129 6.93067 12.6737V1.10876Z" fill="white"/>
<path d="M19.2934 16C18.1384 16 17.1374 15.7459 16.2905 15.2377C15.4435 14.7295 14.7865 14.0186 14.3194 13.1049C13.8574 12.1912 13.6264 11.1235 13.6264 9.90183C13.6264 8.68014 13.8574 7.60988 14.3194 6.69105C14.7865 5.77222 15.4435 5.05871 16.2905 4.55053C17.1374 4.04235 18.1384 3.78826 19.2934 3.78826C20.4483 3.78826 21.4493 4.04235 22.2963 4.55053C23.1432 5.05871 23.7977 5.77222 24.2597 6.69105C24.7268 7.60988 24.9604 8.68014 24.9604 9.90183C24.9604 11.1235 24.7268 12.1912 24.2597 13.1049C23.7977 14.0186 23.1432 14.7295 22.2963 15.2377C21.4493 15.7459 20.4483 16 19.2934 16ZM19.3088 13.7671C19.935 13.7671 20.4586 13.5951 20.8795 13.2512C21.3004 12.9022 21.6135 12.435 21.8189 11.8499C22.0293 11.2647 22.1346 10.6128 22.1346 9.89413C22.1346 9.17036 22.0293 8.51588 21.8189 7.9307C21.6135 7.34039 21.3004 6.87071 20.8795 6.52165C20.4586 6.1726 19.935 5.99808 19.3088 5.99808C18.6671 5.99808 18.1333 6.1726 17.7072 6.52165C17.2863 6.87071 16.9706 7.34039 16.7602 7.9307C16.5548 8.51588 16.4522 9.17036 16.4522 9.89413C16.4522 10.6128 16.5548 11.2647 16.7602 11.8499C16.9706 12.435 17.2863 12.9022 17.7072 13.2512C18.1333 13.5951 18.6671 13.7671 19.3088 13.7671Z" fill="white"/>
<path d="M33.1113 3.94225V6.09817H26.3125V3.94225H33.1113ZM27.991 1.10876H30.7783V12.2117C30.7783 12.5865 30.8348 12.8739 30.9477 13.0741C31.0658 13.2692 31.2198 13.4026 31.4097 13.4745C31.5996 13.5464 31.8101 13.5823 32.0411 13.5823C32.2156 13.5823 32.3747 13.5695 32.5184 13.5438C32.6673 13.5181 32.7802 13.495 32.8572 13.4745L33.3269 15.6535C33.178 15.7048 32.965 15.7613 32.6878 15.8229C32.4158 15.8845 32.0821 15.9204 31.6869 15.9307C30.9888 15.9512 30.36 15.846 29.8004 15.615C29.2409 15.3789 28.7969 15.0144 28.4684 14.5217C28.145 14.0289 27.9859 13.4129 27.991 12.6737V1.10876Z" fill="white"/>
<path d="M40.4307 16C39.2449 16 38.2209 15.7536 37.3585 15.2608C36.5013 14.7629 35.8417 14.0597 35.3797 13.1511C34.9177 12.2374 34.6867 11.162 34.6867 9.92493C34.6867 8.70837 34.9177 7.64068 35.3797 6.72185C35.8468 5.79788 36.4987 5.07924 37.3354 4.56593C38.1721 4.04748 39.1551 3.78826 40.2844 3.78826C41.0133 3.78826 41.7012 3.90632 42.3479 4.14244C42.9998 4.37344 43.5748 4.73276 44.0727 5.2204C44.5757 5.70805 44.971 6.32916 45.2584 7.08373C45.5459 7.83317 45.6896 8.72634 45.6896 9.76323V10.6179H35.9957V8.73917H43.0178C43.0127 8.20533 42.8972 7.73051 42.6713 7.31473C42.4455 6.89381 42.1298 6.56272 41.7243 6.32146C41.3239 6.08021 40.8568 5.95958 40.3229 5.95958C39.7531 5.95958 39.2526 6.09817 38.8215 6.37536C38.3903 6.64742 38.0541 7.00674 37.8128 7.45332C37.5767 7.89477 37.456 8.37985 37.4509 8.90857V10.5486C37.4509 11.2364 37.5767 11.8268 37.8282 12.3195C38.0797 12.8072 38.4313 13.1819 38.8831 13.4437C39.3348 13.7004 39.8635 13.8287 40.4692 13.8287C40.8747 13.8287 41.2417 13.7722 41.5703 13.6593C41.8988 13.5412 42.1837 13.3693 42.4249 13.1434C42.6662 12.9175 42.8484 12.6378 42.9716 12.3041L45.5741 12.5967C45.4099 13.2846 45.0967 13.8851 44.6347 14.3985C44.1779 14.9066 43.5927 15.3019 42.8792 15.5842C42.1657 15.8614 41.3495 16 40.4307 16Z" fill="white"/>
<path d="M50.7145 0V15.769H47.9272V0H50.7145Z" fill="white"/>
</svg>
