<svg width="18" height="23" viewBox="0 0 18 23" fill="none" xmlns="http://www.w3.org/2000/svg">
<path d="M14 13.0195C14 15.781 11.7614 18.0195 9 18.0195C6.23858 18.0195 4 15.781 4 13.0195C4 10.2581 6.23858 8.01953 9 8.01953C11.7614 8.01953 14 10.2581 14 13.0195ZM14 13.0195H9M1 5.01953H17M4.2 21.0195H13.8C14.9201 21.0195 15.4802 21.0195 15.908 20.8015C16.2843 20.6098 16.5903 20.3038 16.782 19.9275C17 19.4997 17 18.9396 17 17.8195V4.21953C17 3.09943 17 2.53937 16.782 2.11155C16.5903 1.73523 16.2843 1.42926 15.908 1.23752C15.4802 1.01953 14.9201 1.01953 13.8 1.01953H4.2C3.0799 1.01953 2.51984 1.01953 2.09202 1.23752C1.71569 1.42926 1.40973 1.73523 1.21799 2.11155C1 2.53937 1 3.09943 1 4.21953V17.8195C1 18.9396 1 19.4997 1.21799 19.9275C1.40973 20.3038 1.71569 20.6098 2.09202 20.8015C2.51984 21.0195 3.07989 21.0195 4.2 21.0195Z" stroke="#272D37" stroke-width="2" stroke-linecap="round"/>
</svg>
